<?xml version="1.0" standalone="no"?>
<!DOCTYPE svg PUBLIC "-//W3C//DTD SVG 20010904//EN"
 "http://www.w3.org/TR/2001/REC-SVG-20010904/DTD/svg10.dtd">
<svg version="1.0" xmlns="http://www.w3.org/2000/svg"
 width="526.000000pt" height="114.000000pt" viewBox="0 0 526.000000 114.000000"
 preserveAspectRatio="xMidYMid meet">
<metadata>
Created by potrace 1.16, written by Peter Selinger 2001-2019
</metadata>
<g transform="translate(0.000000,114.000000) scale(0.100000,-0.100000)"
fill="#000000" stroke="none">
<path d="M0 570 l0 -570 1700 0 1700 0 0 570 0 570 -1700 0 -1700 0 0 -570z
m450 82 c0 -164 3 -231 12 -240 15 -15 171 -16 199 -2 18 10 19 24 19 240 l0
230 100 0 100 0 0 -259 0 -259 -64 -56 -64 -56 -192 0 -191 0 -60 57 -59 56 0
259 0 258 100 0 100 0 0 -228z m1568 156 l-3 -73 -107 -3 -108 -3 0 -239 0
-240 -100 0 -100 0 0 240 0 239 -107 3 -108 3 -3 73 -3 72 321 0 321 0 -3 -72z
m1079 20 l53 -52 0 -126 0 -126 -59 -52 -60 -52 -155 0 -156 0 0 -85 0 -85
-100 0 -100 0 0 315 0 315 262 0 262 0 53 -52z"/>
<path d="M2720 655 l0 -76 113 3 112 3 3 58 c4 83 -1 87 -124 87 l-104 0 0
-75z"/>
<path d="M3667 944 c-12 -13 -7 -124 7 -159 11 -27 22 -35 49 -40 20 -4 45 -4
56 0 43 13 51 32 51 121 0 77 -2 84 -20 84 -18 0 -20 -7 -20 -74 0 -82 -12
-103 -54 -92 -24 6 -25 11 -28 83 -2 61 -6 78 -18 81 -9 1 -19 0 -23 -4z"/>
<path d="M4840 916 c0 -34 -1 -35 -35 -29 -48 8 -75 -17 -75 -69 0 -61 43 -93
91 -68 11 7 19 7 19 1 0 -5 8 -8 18 -7 15 3 17 17 20 104 3 97 2 102 -18 102
-16 0 -20 -6 -20 -34z"/>
<path d="M5160 916 c0 -34 0 -34 -39 -29 -32 4 -41 2 -55 -18 -22 -32 -20 -71
5 -103 21 -26 62 -35 74 -16 5 8 11 7 20 0 27 -22 35 1 35 101 0 92 -1 99 -20
99 -16 0 -20 -7 -20 -34z"/>
<path d="M4256 868 c-23 -33 -20 -75 9 -103 29 -30 64 -32 96 -6 30 24 18 39
-20 24 -18 -6 -35 -7 -45 -1 -30 17 -16 28 34 28 46 0 50 2 50 23 0 55 -93 80
-124 35z"/>
<path d="M4916 874 c-24 -24 -20 -27 29 -20 29 5 45 4 45 -3 0 -6 -12 -11 -26
-11 -42 0 -64 -17 -64 -51 0 -36 40 -60 70 -42 10 7 21 9 24 5 4 -3 13 -7 21
-8 12 -2 15 11 15 60 0 35 -5 67 -12 74 -17 17 -84 15 -102 -4z"/>
<path d="M3827 597 c-10 -6 -20 -29 -23 -49 -12 -69 63 -113 117 -69 30 24 17
39 -21 24 -25 -9 -33 -8 -47 5 -16 16 -13 17 38 22 30 3 53 8 52 13 -2 4 -3
13 -3 21 0 40 -75 62 -113 33z"/>
<path d="M4300 590 c-43 -43 -6 -130 55 -130 58 0 95 78 59 128 -20 29 -85 31
-114 2z"/>
<path d="M4530 590 c-28 -28 -26 -75 5 -105 30 -30 64 -32 99 -4 30 24 35 72
10 107 -20 29 -85 31 -114 2z"/>
<path d="M4692 597 c-30 -39 -16 -113 24 -123 13 -4 33 -4 44 -1 13 3 20 0 20
-9 0 -22 -27 -28 -66 -16 -27 8 -34 7 -34 -4 0 -35 95 -47 123 -16 13 14 17
38 17 99 l0 81 -59 1 c-36 0 -63 -4 -69 -12z"/>
<path d="M5082 598 c-22 -22 -12 -29 33 -22 30 4 45 3 45 -5 0 -6 -12 -11 -28
-11 -35 0 -72 -25 -72 -49 0 -37 68 -69 85 -41 5 8 11 7 20 0 23 -19 35 -2 35
51 0 73 -12 89 -63 89 -24 0 -48 -5 -55 -12z"/>
<path d="M3770 355 c0 -33 -1 -34 -25 -23 -19 9 -29 8 -50 -6 -56 -37 -22
-160 39 -141 12 4 33 6 49 6 l27 -1 0 100 c0 93 -1 100 -20 100 -16 0 -20 -7
-20 -35z"/>
<path d="M4120 290 c0 -92 2 -100 19 -100 15 0 21 8 23 33 3 30 6 32 45 35 70
5 106 69 63 112 -16 16 -33 20 -85 20 l-65 0 0 -100z"/>
<path d="M3855 315 c-61 -60 6 -160 81 -123 15 7 30 19 32 27 3 10 -5 12 -38
6 -31 -5 -45 -4 -51 6 -13 22 0 29 52 29 47 0 50 1 44 23 -17 56 -79 74 -120
32z"/>
</g>
</svg>
